<svg id="drawing-board" width="400" height="300" xmlns="http://www.w3.org/2000/svg">
        <!--<rect width="100%" height="100%" fill="white" />-->
    <path stroke="black" fill="none" d="M0,0.125 L1,0.125 L2,0.125 L3,1.125 L4,2.125 L5,2.125 L7,3.125 L8,5.125 L10,6.125 L12,7.125 L14,8.125 L16,9.125 L19,10.125 L21,11.125 L24,12.125 L27,13.125 L30,13.125 L33,14.125 L36,15.125 L40,15.125 L42,16.125 L46,16.125 L49,16.125 L52,16.125 L55,16.125 L58,16.125 L62,16.125 L65,16.125 L68,16.125 L72,16.125 L76,15.125 L80,15.125 L83,14.125 L87,14.125 L90,14.125 L93,13.125 L96,13.125 L99,13.125 L102,13.125 L104,13.125 L107,13.125 L110,13.125 L113,13.125 L117,14.125 L121,15.125 L125,15.125 L129,16.125 L133,17.125 L138,19.125 L143,21.125 L148,22.125 L151,24.125 L155,26.125 L157,28.125 L159,30.125 L161,32.125 L162,34.125 L164,37.125 L165,40.125 L166,43.125 L167,47.125 L168,50.125 L168,54.125 L169,58.125 L170,62.125 L171,67.125 L172,71.125 L172,75.125 L173,80.125 L174,84.125 L174,88.125 L175,92.125 L176,96.125 L176,100.125 L177,104.125 L178,113.125 L179,116.125 L179,118.125 L179,120.125 L179,121.125 L180,123.125 L180,124.125 L180,125.125 L180,126.125 L180,127.125 L179,128.125 L178,129.125 L177,129.125 L176,130.125 L175,131.125 L173,132.125 L171,133.125 L169,134.125 L166,135.125 L164,136.125 L161,137.125 L158,137.125 L155,138.125 L153,139.125 L150,140.125 L148,140.125 L146,140.125 L144,141.125 L142,141.125 L140,141.125 L137,141.125 L134,141.125 L131,141.125 L128,141.125 L125,141.125 L122,141.125 L119,140.125 L117,140.125 L114,140.125 L112,139.125 L110,138.125 L107,137.125 L104,136.125 L101,136.125 L98,135.125 L95,134.125 L92,133.125 L89,132.125 L86,131.125 L83,130.125 L80,129.125 L78,128.125 L77,127.125 L74,126.125 L72,125.125 L71,123.125 L69,122.125 L67,120.125 L66,119.125 L65,117.125 L64,116.125 L63,115.125 L62,113.125 L62,112.125 L61,110.125 L60,108.125 L59,107.125 L58,105.125 L57,103.125 L56,101.125 L55,99.125 L55,97.125 L54,95.125 L53,93.125 L51,91.125 L50,89.125 L49,87.125 L48,85.125 L47,83.125 L45,81.125 L44,79.125 L42,77.125 L41,75.125 L39,73.125 L37,70.125 L34,67.125 L32,65.125 L30,62.125 L27,58.125 L26,56.125 L24,54.125 L22,53.125 L21,51.125 L19,49.125 L17,48.125 L16,47.125 L15,46.125 L14,45.125 L13,45.125 L13,44.125 L12,44.125 L11,43.125 L10,43.125 L10,42.125 L9,42.125 L9,41.125 L9,40.125 L8,40.125 L8,39.125 L8,38.125 L7,37.125 L7,36.125 L7,34.125 L6,33.125 L6,32.125 L6,31.125 L6,30.125 L6,29.125 L5,27.125 L5,25.125 L5,24.125 L5,22.125 L5,21.125 L5,19.125 L5,18.125 L5,16.125 L5,15.125 L4,14.125 L4,13.125 L4,12.125 L4,11.125 L4,10.125 L3,10.125 L3,9.125 L3,8.125 L3,7.125 L3,6.125 L2,6.125 L2,5.125 L1,5.125 L1,4.125 L0,4.125 L0,3.125 L-1,2.125 L-1,1.125"/></svg>