<svg id="drawing-board" width="400" height="300" xmlns="http://www.w3.org/2000/svg">
        <!--<rect width="100%" height="100%" fill="white" />-->
    <path stroke="black" fill="none" d="M20,50.40625 L20,51.40625 L20,52.40625 L20,53.40625 L21,54.40625 L21,56.40625 L21,58.40625 L21,61.40625 L21,63.40625 L21,66.40625 L21,69.40625 L21,72.40625 L21,74.40625 L21,77.40625 L21,79.40625 L21,81.40625 L21,82.40625 L21,84.40625 L21,85.40625 L21,87.40625 L21,89.40625 L21,91.40625 L21,94.40625 L21,96.40625 L22,98.40625 L22,100.40625 L22,102.40625 L23,103.40625 L23,104.40625 L23,105.40625 L23,107.40625 L23,108.40625 L23,109.40625 L23,111.40625 L23,112.40625 L23,113.40625 L23,114.40625 L23,115.40625 L23,116.40625 L23,117.40625 L23,119.40625 L23,120.40625 L23,121.40625 L23,123.40625 L23,125.40625 L23,127.40625 L23,129.40625 L23,131.40625 L23,134.40625 L23,136.40625 L23,138.40625 L23,141.40625 L23,143.40625 L23,145.40625 L23,146.40625 L23,147.40625 L23,148.40625 L23,149.40625 L23,150.40625 L23,151.40625 L23,152.40625 L23,153.40625 L23,155.40625 L23,156.40625 L23,158.40625 L23,160.40625 L22,161.40625 L22,163.40625 L22,165.40625 L22,167.40625 L22,168.40625 L22,171.40625 L22,172.40625 L22,174.40625 L22,176.40625 L22,178.40625 L21,180.40625 L21,181.40625 L21,183.40625 L20,184.40625 L20,186.40625 L20,188.40625 L20,190.40625 L20,192.40625 L20,193.40625 L19,195.40625 L19,198.40625 L19,200.40625 L19,202.40625 L19,205.40625 L19,207.40625 L18,209.40625 L18,210.40625 L18,212.40625 L18,213.40625 L18,214.40625 L18,215.40625 L18,216.40625 L18,217.40625 L18,218.40625 L18,219.40625 L17,220.40625 L17,221.40625 L17,222.40625 L17,223.40625 L17,224.40625 L17,226.40625 L17,229.40625 L17,232.40625 L17,234.40625 L17,237.40625 L18,239.40625 L18,240.40625 L18,241.40625 L18,242.40625 L18,243.40625 L19,243.40625"/><path stroke="black" fill="none" d="M20,50.40625 L21,50.40625 L23,50.40625 L26,50.40625 L29,50.40625 L33,50.40625 L36,50.40625 L39,50.40625 L43,50.40625 L46,50.40625 L48,50.40625 L50,50.40625 L52,50.40625 L53,50.40625 L54,50.40625 L55,50.40625 L56,50.40625 L56,51.40625 L57,51.40625 L58,51.40625 L58,52.40625 L59,52.40625 L60,52.40625 L60,53.40625 L61,53.40625 L62,53.40625 L63,54.40625 L64,54.40625 L65,54.40625 L66,55.40625 L67,55.40625 L69,56.40625 L72,57.40625 L73,58.40625 L74,58.40625 L76,59.40625 L77,59.40625 L77,60.40625 L78,60.40625 L79,61.40625 L80,62.40625 L81,62.40625 L81,63.40625 L83,64.40625 L84,65.40625 L86,66.40625 L87,67.40625 L88,68.40625 L90,70.40625 L91,71.40625 L93,72.40625 L95,73.40625 L97,75.40625 L100,77.40625 L103,79.40625 L106,82.40625 L109,84.40625 L112,86.40625 L113,87.40625 L115,88.40625 L115,89.40625 L116,89.40625 L116,90.40625 L117,91.40625 L117,92.40625 L117,93.40625 L118,94.40625 L118,96.40625 L118,97.40625 L119,100.40625 L120,102.40625 L120,104.40625 L121,106.40625 L121,107.40625 L122,109.40625 L122,110.40625 L122,112.40625 L123,114.40625 L124,116.40625 L124,118.40625 L125,120.40625 L126,123.40625 L127,126.40625 L128,129.40625 L129,131.40625 L129,133.40625 L130,136.40625 L131,139.40625 L131,142.40625 L132,145.40625 L133,148.40625 L134,151.40625 L134,154.40625 L134,156.40625 L135,158.40625 L135,160.40625 L135,162.40625 L135,163.40625 L135,164.40625 L135,166.40625 L135,167.40625 L135,168.40625 L135,169.40625 L134,169.40625 L134,170.40625 L133,171.40625 L133,173.40625 L132,174.40625 L131,175.40625 L130,177.40625 L129,178.40625 L129,179.40625 L128,179.40625 L127,179.40625 L126,181.40625 L126,182.40625 L124,183.40625 L123,185.40625 L122,186.40625 L121,188.40625 L119,190.40625 L117,193.40625 L116,195.40625 L114,196.40625 L113,198.40625 L112,200.40625 L110,202.40625 L109,203.40625 L108,205.40625 L106,206.40625 L106,207.40625 L105,207.40625 L104,208.40625 L103,208.40625 L102,209.40625 L102,210.40625 L101,211.40625 L100,212.40625 L100,213.40625 L99,213.40625 L99,214.40625 L98,214.40625 L97,215.40625 L96,215.40625 L96,216.40625 L95,216.40625 L95,217.40625 L94,217.40625 L93,217.40625 L93,218.40625 L91,219.40625 L90,220.40625 L88,221.40625 L87,222.40625 L85,223.40625 L83,225.40625 L81,226.40625 L79,227.40625 L77,229.40625 L75,230.40625 L73,230.40625 L72,231.40625 L70,232.40625 L69,233.40625 L67,234.40625 L66,234.40625 L64,234.40625 L61,235.40625 L60,236.40625 L57,237.40625 L56,237.40625 L54,237.40625 L52,237.40625 L50,238.40625 L49,238.40625 L47,238.40625 L46,238.40625 L44,239.40625 L42,239.40625 L40,239.40625 L38,239.40625 L37,239.40625 L36,239.40625 L35,239.40625 L34,239.40625 L33,239.40625 L32,239.40625 L31,239.40625 L30,239.40625 L28,239.40625 L26,239.40625 L25,239.40625 L23,239.40625 L21,239.40625 L20,239.40625 L19,239.40625 L18,239.40625 L17,239.40625 L16,239.40625 L15,239.40625 L14,239.40625 L13,239.40625 L14,239.40625"/><path stroke="black" fill="none" d="M45,86.40625 L45,87.40625 L44,87.40625 L44,90.40625 L44,92.40625 L44,94.40625 L44,97.40625 L44,99.40625 L44,101.40625 L43,103.40625 L43,105.40625 L43,108.40625 L43,110.40625 L43,111.40625 L43,113.40625 L43,114.40625 L43,116.40625 L43,118.40625 L43,120.40625 L43,122.40625 L43,124.40625 L44,127.40625 L44,131.40625 L44,133.40625 L44,136.40625 L45,138.40625 L45,140.40625 L45,141.40625 L45,142.40625 L45,143.40625 L45,144.40625 L45,145.40625 L46,145.40625 L46,146.40625 L46,147.40625 L46,148.40625 L46,149.40625 L46,150.40625 L46,151.40625 L46,152.40625 L46,153.40625 L46,154.40625 L46,155.40625 L46,156.40625 L46,157.40625 L46,158.40625 L46,160.40625 L46,162.40625 L46,164.40625 L46,167.40625 L46,169.40625 L46,171.40625 L46,173.40625 L46,174.40625 L46,175.40625 L46,176.40625 L46,177.40625 L46,178.40625 L46,179.40625 L46,180.40625 L46,182.40625 L46,183.40625 L46,184.40625 L46,185.40625 L46,186.40625 L46,187.40625 L46,188.40625 L46,189.40625 L46,190.40625 L46,191.40625 L46,192.40625 L46,193.40625 L46,194.40625 L46,195.40625 L45,195.40625 L45,197.40625 L45,198.40625 L44,199.40625 L44,200.40625 L44,201.40625 L44,202.40625 L44,203.40625 L43,205.40625 L43,206.40625 L43,207.40625 L43,208.40625 L43,209.40625 L43,208.40625"/><path stroke="black" fill="none" d="M41,85.40625 L42,85.40625 L43,85.40625 L44,85.40625 L46,85.40625 L48,85.40625 L51,85.40625 L54,85.40625 L57,85.40625 L60,86.40625 L63,86.40625 L64,87.40625 L66,87.40625 L67,87.40625 L68,87.40625 L69,87.40625 L70,87.40625 L71,87.40625 L72,87.40625 L73,87.40625 L74,87.40625 L74,88.40625 L75,89.40625 L76,89.40625 L77,89.40625 L77,90.40625 L77,91.40625 L78,92.40625 L79,92.40625 L79,94.40625 L80,94.40625 L81,95.40625 L82,96.40625 L83,97.40625 L83,98.40625 L84,100.40625 L85,100.40625 L85,101.40625 L85,102.40625 L85,103.40625 L85,104.40625 L86,104.40625 L86,105.40625 L87,106.40625 L87,108.40625 L87,109.40625 L88,110.40625 L88,112.40625 L89,113.40625 L89,115.40625 L89,117.40625 L89,118.40625 L89,119.40625 L89,120.40625 L89,121.40625 L90,123.40625 L91,125.40625 L91,126.40625 L91,127.40625 L91,128.40625 L91,129.40625 L91,130.40625 L92,130.40625 L92,131.40625 L92,132.40625 L92,133.40625 L92,134.40625 L92,135.40625 L92,136.40625 L92,137.40625 L92,138.40625 L92,139.40625 L92,141.40625 L92,142.40625 L92,144.40625 L92,146.40625 L92,148.40625 L92,149.40625 L91,151.40625 L91,153.40625 L91,155.40625 L91,157.40625 L90,158.40625 L90,160.40625 L90,161.40625 L89,162.40625 L88,164.40625 L88,165.40625 L87,167.40625 L86,168.40625 L85,169.40625 L85,171.40625 L84,173.40625 L84,174.40625 L84,175.40625 L84,176.40625 L84,177.40625 L83,177.40625 L83,178.40625 L83,179.40625 L82,179.40625 L82,180.40625 L81,180.40625 L81,181.40625 L80,181.40625 L79,183.40625 L78,184.40625 L77,186.40625 L76,187.40625 L75,189.40625 L74,190.40625 L73,192.40625 L73,193.40625 L73,194.40625 L73,195.40625 L72,195.40625 L71,195.40625 L71,196.40625 L71,197.40625 L70,197.40625 L69,198.40625 L69,199.40625 L67,200.40625 L66,202.40625 L65,203.40625 L64,204.40625 L63,206.40625 L62,207.40625 L61,208.40625 L60,208.40625 L59,208.40625 L59,209.40625 L58,209.40625 L57,209.40625 L56,209.40625 L56,210.40625 L55,210.40625 L54,210.40625 L53,210.40625 L52,210.40625 L51,210.40625 L50,211.40625 L49,211.40625 L48,211.40625 L47,211.40625 L46,211.40625 L45,211.40625 L44,211.40625 L44,210.40625 L44,209.40625 L44,207.40625"/><path stroke="black" fill="none" d="M138,61.40625 L139,61.40625 L140,61.40625 L142,61.40625 L143,61.40625 L144,61.40625 L145,61.40625 L147,61.40625 L148,60.40625 L150,60.40625 L152,60.40625 L154,60.40625 L156,60.40625 L158,59.40625 L159,59.40625 L160,59.40625 L161,59.40625 L162,59.40625 L163,59.40625 L163,58.40625"/><path stroke="black" fill="none" d="M234,59.40625 L235,59.40625 L236,59.40625 L238,59.40625 L239,59.40625 L241,59.40625 L242,59.40625 L244,59.40625 L245,58.40625 L247,58.40625 L249,58.40625 L250,58.40625 L251,58.40625 L252,58.40625"/><path stroke="black" fill="none" d="M163,58.40625 L163,59.40625 L163,60.40625 L163,61.40625 L164,62.40625 L165,64.40625 L165,66.40625 L166,68.40625 L167,70.40625 L167,72.40625 L168,74.40625 L168,75.40625 L168,76.40625 L169,77.40625 L169,78.40625 L169,79.40625 L170,80.40625 L171,82.40625 L171,83.40625 L172,85.40625 L173,86.40625 L175,88.40625 L176,91.40625 L177,92.40625 L177,94.40625 L178,95.40625 L178,96.40625 L179,98.40625 L180,98.40625 L180,99.40625 L181,100.40625 L181,101.40625 L181,102.40625 L182,102.40625 L182,103.40625 L182,104.40625 L182,105.40625 L182,106.40625 L183,108.40625 L183,109.40625 L183,110.40625 L183,111.40625 L184,111.40625 L184,112.40625 L184,113.40625 L184,114.40625 L185,114.40625 L185,115.40625 L185,116.40625 L186,117.40625 L186,118.40625 L186,119.40625 L187,119.40625 L187,120.40625 L187,122.40625 L188,124.40625 L189,125.40625 L189,126.40625 L189,127.40625 L189,128.40625 L189,129.40625 L189,130.40625 L189,131.40625 L190,131.40625 L190,132.40625 L190,133.40625 L190,134.40625 L190,135.40625 L191,135.40625 L191,136.40625 L191,137.40625 L191,138.40625 L192,138.40625 L192,139.40625 L193,139.40625 L193,140.40625 L193,141.40625 L193,142.40625 L193,143.40625 L193,144.40625 L193,145.40625 L194,146.40625 L194,147.40625 L194,148.40625 L195,149.40625 L196,149.40625 L196,150.40625 L197,150.40625 L197,151.40625 L198,151.40625 L198,152.40625 L198,153.40625 L199,153.40625 L199,154.40625 L200,155.40625 L200,156.40625 L200,157.40625 L201,158.40625 L201,159.40625 L201,160.40625 L202,160.40625 L202,161.40625 L202,162.40625 L202,163.40625 L202,162.40625 L202,161.40625 L202,160.40625 L203,159.40625 L204,157.40625 L204,156.40625 L205,154.40625 L205,152.40625 L206,150.40625 L207,148.40625 L209,146.40625 L210,144.40625 L211,142.40625 L212,140.40625 L212,138.40625 L213,137.40625 L214,135.40625 L214,133.40625 L215,131.40625 L216,129.40625 L216,128.40625 L217,126.40625 L218,125.40625 L218,123.40625 L219,122.40625 L220,121.40625 L220,119.40625 L221,118.40625 L221,117.40625 L222,115.40625 L222,114.40625 L222,113.40625 L223,113.40625 L224,111.40625 L224,110.40625 L224,109.40625 L225,108.40625 L226,108.40625 L226,107.40625 L226,106.40625 L226,105.40625 L226,104.40625 L226,103.40625 L226,102.40625 L226,101.40625 L226,100.40625 L227,99.40625 L227,98.40625 L227,97.40625 L227,96.40625 L227,94.40625 L228,93.40625 L228,91.40625 L228,89.40625 L229,88.40625 L229,86.40625 L229,85.40625 L230,84.40625 L230,83.40625 L231,82.40625 L231,81.40625 L231,80.40625 L231,79.40625 L232,77.40625 L232,76.40625 L232,75.40625 L233,74.40625 L233,73.40625 L233,72.40625 L233,71.40625 L233,70.40625 L233,69.40625 L233,68.40625 L233,67.40625 L233,66.40625 L233,65.40625 L233,64.40625 L233,63.40625 L234,62.40625 L234,61.40625 L234,60.40625 L235,60.40625 L235,59.40625 L236,57.40625 L236,56.40625"/><path stroke="black" fill="none" d="M142,60.40625 L142,61.40625 L142,62.40625 L142,63.40625 L142,64.40625 L143,65.40625 L143,66.40625 L144,68.40625 L145,69.40625 L145,70.40625 L146,72.40625 L147,74.40625 L147,76.40625 L148,78.40625 L149,80.40625 L151,82.40625 L152,85.40625 L153,88.40625 L155,90.40625 L156,93.40625 L157,96.40625 L158,98.40625 L159,101.40625 L160,103.40625 L162,105.40625 L164,108.40625 L165,111.40625 L167,113.40625 L168,115.40625 L169,117.40625 L170,119.40625 L171,121.40625 L172,122.40625 L172,123.40625 L173,123.40625 L173,125.40625 L173,126.40625 L174,126.40625 L175,127.40625 L175,128.40625 L176,128.40625 L176,129.40625 L176,130.40625 L176,131.40625 L176,132.40625 L177,132.40625 L177,133.40625 L177,135.40625 L177,136.40625 L178,137.40625 L178,138.40625 L178,139.40625 L179,140.40625 L179,141.40625 L179,142.40625 L180,142.40625 L180,143.40625 L180,144.40625 L180,145.40625 L180,146.40625 L181,147.40625 L181,149.40625 L182,151.40625 L183,152.40625 L183,153.40625 L184,155.40625 L184,156.40625 L184,157.40625 L184,158.40625 L185,158.40625 L185,159.40625 L185,160.40625 L185,161.40625 L186,162.40625 L186,163.40625 L186,164.40625 L186,165.40625 L187,166.40625 L188,168.40625 L188,169.40625 L188,170.40625 L189,170.40625 L189,171.40625 L189,172.40625 L189,173.40625 L190,173.40625 L190,174.40625 L190,175.40625 L190,176.40625 L192,177.40625 L192,178.40625 L192,179.40625 L193,180.40625 L194,181.40625 L194,182.40625 L195,182.40625 L195,183.40625 L196,183.40625 L196,184.40625 L196,185.40625 L197,185.40625 L197,186.40625 L198,187.40625 L198,188.40625 L199,189.40625 L200,189.40625 L200,190.40625 L200,191.40625 L201,191.40625 L202,191.40625 L202,192.40625 L203,192.40625 L203,193.40625 L203,192.40625 L204,192.40625 L204,191.40625 L205,190.40625 L206,189.40625 L207,188.40625 L208,186.40625 L209,186.40625 L210,184.40625 L211,183.40625 L212,182.40625 L213,181.40625 L214,179.40625 L215,178.40625 L216,176.40625 L217,175.40625 L218,173.40625 L218,171.40625 L219,170.40625 L220,168.40625 L220,167.40625 L221,165.40625 L221,164.40625 L221,163.40625 L221,162.40625 L221,161.40625 L221,160.40625 L221,159.40625 L221,158.40625 L221,157.40625 L221,156.40625 L222,155.40625 L222,154.40625 L223,153.40625 L223,152.40625 L223,151.40625 L224,150.40625 L224,149.40625 L224,148.40625 L225,147.40625 L225,146.40625 L226,144.40625 L227,143.40625 L227,141.40625 L228,139.40625 L229,138.40625 L229,136.40625 L230,135.40625 L231,134.40625 L231,132.40625 L231,131.40625 L232,130.40625 L233,129.40625 L233,128.40625 L234,127.40625 L234,126.40625 L235,125.40625 L235,124.40625 L235,123.40625 L235,122.40625 L235,121.40625 L235,120.40625 L236,118.40625 L236,117.40625 L237,115.40625 L237,114.40625 L237,113.40625 L238,112.40625 L238,111.40625 L238,110.40625 L238,109.40625 L239,108.40625 L239,107.40625 L240,106.40625 L240,105.40625 L240,103.40625 L241,102.40625 L242,101.40625 L242,99.40625 L242,98.40625 L243,97.40625 L243,96.40625 L244,95.40625 L244,94.40625 L244,93.40625 L244,92.40625 L245,91.40625 L245,89.40625 L245,87.40625 L246,85.40625 L246,83.40625 L247,82.40625 L248,80.40625 L248,79.40625 L249,78.40625 L249,76.40625 L250,75.40625 L250,74.40625 L251,74.40625 L251,73.40625 L251,72.40625 L251,71.40625 L252,70.40625 L252,69.40625 L252,68.40625 L252,67.40625 L252,66.40625 L252,65.40625 L252,64.40625 L252,63.40625 L252,62.40625 L252,61.40625 L253,60.40625 L253,59.40625 L254,59.40625 L254,58.40625 L254,57.40625"/><path stroke="black" fill="none" d="M285,36.40625 L285,37.40625 L285,38.40625 L285,39.40625 L285,40.40625 L285,42.40625 L285,43.40625 L285,45.40625 L285,47.40625 L284,49.40625 L284,51.40625 L283,54.40625 L283,55.40625 L283,57.40625 L282,59.40625 L282,61.40625 L282,63.40625 L281,65.40625 L281,67.40625 L281,69.40625 L281,70.40625 L280,72.40625 L280,73.40625 L280,75.40625 L280,77.40625 L280,79.40625 L280,81.40625 L280,82.40625 L280,84.40625 L279,86.40625 L279,87.40625 L279,88.40625 L279,89.40625 L279,90.40625 L278,91.40625 L278,92.40625 L278,93.40625 L278,94.40625 L278,95.40625 L278,96.40625 L279,97.40625 L279,98.40625 L279,99.40625 L279,100.40625 L279,101.40625 L279,102.40625 L279,103.40625 L279,104.40625 L279,106.40625 L279,107.40625 L279,109.40625 L279,111.40625 L279,113.40625 L279,114.40625 L279,116.40625 L279,118.40625 L279,120.40625 L279,122.40625 L279,124.40625 L279,126.40625 L279,127.40625 L279,129.40625 L279,131.40625 L279,133.40625 L279,135.40625 L279,136.40625 L279,139.40625 L279,141.40625 L280,142.40625 L280,144.40625 L280,146.40625 L280,148.40625 L280,150.40625 L280,153.40625 L280,155.40625 L280,157.40625 L280,159.40625 L279,161.40625 L279,162.40625 L279,163.40625 L279,164.40625 L279,167.40625 L279,169.40625 L279,171.40625 L278,174.40625 L278,175.40625 L278,176.40625 L278,177.40625 L278,178.40625 L278,179.40625 L278,180.40625 L277,182.40625 L277,184.40625 L276,187.40625 L276,190.40625 L276,193.40625 L276,196.40625 L276,199.40625 L275,201.40625 L275,202.40625 L275,203.40625 L275,204.40625 L275,205.40625 L275,206.40625 L275,207.40625 L275,208.40625 L275,209.40625 L275,210.40625 L275,211.40625 L275,212.40625 L275,214.40625 L275,216.40625 L275,218.40625 L275,221.40625 L275,222.40625 L275,224.40625 L275,225.40625 L275,226.40625 L275,227.40625 L275,228.40625 L276,228.40625 L276,229.40625 L277,229.40625 L277,230.40625 L277,229.40625 L276,229.40625 L276,228.40625 L276,227.40625"/><path stroke="black" fill="none" d="M283,35.40625 L284,35.40625 L285,35.40625 L286,35.40625 L288,34.40625 L290,34.40625 L293,34.40625 L296,34.40625 L300,34.40625 L304,34.40625 L308,34.40625 L312,34.40625 L316,34.40625 L319,34.40625 L323,34.40625 L325,34.40625 L328,35.40625 L330,36.40625 L331,36.40625 L332,36.40625 L333,36.40625 L334,36.40625 L335,36.40625 L336,37.40625 L337,37.40625 L338,38.40625 L339,38.40625 L340,38.40625 L341,39.40625 L342,40.40625 L343,40.40625 L344,40.40625 L344,41.40625 L345,41.40625 L345,42.40625 L346,42.40625 L347,43.40625 L348,44.40625 L349,44.40625 L349,45.40625 L350,46.40625 L351,46.40625 L352,47.40625 L353,48.40625 L353,49.40625 L354,49.40625 L355,49.40625 L355,50.40625 L356,50.40625 L357,51.40625 L357,52.40625 L358,52.40625 L358,53.40625 L359,53.40625 L359,54.40625 L360,54.40625 L361,55.40625 L361,56.40625 L362,56.40625 L362,57.40625 L363,57.40625 L363,58.40625 L364,59.40625 L364,60.40625 L365,60.40625 L365,61.40625 L366,62.40625 L366,63.40625 L367,63.40625 L367,64.40625 L368,65.40625 L369,65.40625 L369,66.40625 L370,67.40625 L370,68.40625 L371,68.40625 L371,69.40625 L371,70.40625 L372,70.40625 L372,71.40625 L373,72.40625 L374,73.40625 L374,74.40625 L375,75.40625 L376,76.40625 L376,77.40625 L377,79.40625 L378,79.40625 L378,80.40625 L378,81.40625 L379,81.40625 L379,82.40625 L379,83.40625 L380,83.40625 L381,84.40625 L382,86.40625 L383,88.40625 L384,89.40625 L385,91.40625 L386,93.40625 L387,95.40625 L388,96.40625 L389,98.40625 L390,101.40625 L391,102.40625 L392,104.40625 L393,106.40625 L394,107.40625 L395,108.40625 L395,110.40625 L396,111.40625 L396,112.40625 L397,112.40625 L397,113.40625 L397,114.40625 L397,115.40625 L397,116.40625 L397,117.40625 L397,118.40625 L397,119.40625 L397,120.40625 L397,121.40625 L397,122.40625 L397,123.40625 L397,124.40625 L397,125.40625 L397,127.40625 L397,128.40625 L397,129.40625 L397,131.40625 L397,132.40625 L397,134.40625 L397,136.40625 L397,138.40625 L397,139.40625 L397,141.40625 L397,143.40625 L397,145.40625 L397,147.40625 L397,148.40625 L397,149.40625 L397,150.40625 L397,152.40625 L397,153.40625 L397,154.40625 L397,155.40625 L397,156.40625 L397,157.40625 L397,158.40625 L396,161.40625 L396,162.40625 L395,163.40625 L395,165.40625 L394,166.40625 L394,167.40625 L393,167.40625 L393,168.40625 L393,169.40625 L392,170.40625 L392,171.40625 L391,171.40625 L391,172.40625 L391,173.40625 L390,174.40625 L389,175.40625 L388,176.40625 L387,178.40625 L387,179.40625 L385,180.40625 L385,181.40625 L384,182.40625 L383,183.40625 L382,184.40625 L381,185.40625 L381,186.40625 L380,186.40625 L379,187.40625 L379,188.40625 L378,188.40625 L378,189.40625 L377,189.40625 L377,190.40625 L376,190.40625 L375,191.40625 L374,192.40625 L374,193.40625 L373,194.40625 L372,195.40625 L371,196.40625 L370,197.40625 L368,198.40625 L368,199.40625 L366,200.40625 L365,201.40625 L364,202.40625 L363,203.40625 L362,203.40625 L362,204.40625 L360,205.40625 L359,205.40625 L357,207.40625 L355,208.40625 L354,209.40625 L352,210.40625 L350,211.40625 L349,212.40625 L348,212.40625 L347,213.40625 L346,213.40625 L345,213.40625 L343,214.40625 L342,215.40625 L341,215.40625 L341,216.40625 L340,216.40625 L339,217.40625 L338,217.40625 L337,217.40625 L335,218.40625 L334,219.40625 L332,219.40625 L330,220.40625 L329,220.40625 L327,220.40625 L327,221.40625 L325,221.40625 L325,222.40625 L324,222.40625 L323,222.40625 L322,222.40625 L321,222.40625 L321,223.40625 L318,224.40625 L315,224.40625 L313,224.40625 L311,225.40625 L309,225.40625 L307,225.40625 L306,226.40625 L304,226.40625 L303,226.40625 L302,226.40625 L300,226.40625 L299,226.40625 L298,226.40625 L297,226.40625 L296,226.40625 L295,226.40625 L294,226.40625 L293,226.40625 L292,226.40625 L291,226.40625 L290,226.40625 L289,226.40625 L288,226.40625 L287,226.40625 L286,226.40625 L285,226.40625 L284,226.40625 L283,226.40625 L283,225.40625 L282,225.40625 L282,224.40625 L282,222.40625 L281,221.40625"/><path stroke="black" fill="none" d="M302,61.40625 L303,62.40625 L303,63.40625 L304,63.40625 L304,64.40625 L304,65.40625 L304,66.40625 L304,67.40625 L304,68.40625 L304,69.40625 L304,70.40625 L304,71.40625 L304,72.40625 L304,73.40625 L304,74.40625 L304,75.40625 L304,76.40625 L303,77.40625 L303,78.40625 L303,80.40625 L303,81.40625 L303,83.40625 L303,85.40625 L303,87.40625 L303,89.40625 L302,91.40625 L302,92.40625 L302,93.40625 L302,94.40625 L302,95.40625 L302,96.40625 L302,97.40625 L301,98.40625 L301,99.40625 L301,100.40625 L301,102.40625 L300,103.40625 L300,104.40625 L300,106.40625 L300,107.40625 L299,109.40625 L299,110.40625 L299,112.40625 L299,113.40625 L299,115.40625 L299,117.40625 L299,120.40625 L299,121.40625 L299,122.40625 L299,124.40625 L299,125.40625 L299,126.40625 L299,127.40625 L299,129.40625 L299,131.40625 L299,134.40625 L299,136.40625 L299,138.40625 L299,139.40625 L299,140.40625 L299,141.40625 L299,142.40625 L299,143.40625 L299,144.40625 L299,145.40625 L299,147.40625 L299,149.40625 L300,151.40625 L300,153.40625 L300,155.40625 L300,157.40625 L300,159.40625 L300,161.40625 L300,164.40625 L300,166.40625 L300,167.40625 L300,168.40625 L300,169.40625 L300,170.40625 L300,171.40625 L300,172.40625 L301,172.40625 L301,173.40625 L301,174.40625 L302,176.40625 L302,178.40625 L302,180.40625 L303,181.40625 L303,182.40625 L303,183.40625 L303,184.40625 L303,185.40625 L303,186.40625 L303,187.40625 L303,188.40625 L303,189.40625 L302,189.40625 L302,190.40625 L302,191.40625 L301,191.40625 L301,192.40625 L300,193.40625 L299,193.40625 L299,192.40625 L298,192.40625 L298,191.40625 L298,189.40625 L298,186.40625 L298,183.40625 L297,179.40625 L297,175.40625 L297,171.40625"/><path stroke="black" fill="none" d="M305,61.40625 L304,61.40625 L303,62.40625 L302,63.40625 L302,64.40625 L303,64.40625 L304,64.40625 L305,64.40625 L305,65.40625 L306,65.40625 L307,65.40625 L307,66.40625 L308,66.40625 L309,66.40625 L311,67.40625 L312,68.40625 L314,68.40625 L315,68.40625 L317,69.40625 L318,70.40625 L319,70.40625 L320,70.40625 L321,71.40625 L321,72.40625 L322,73.40625 L323,74.40625 L324,75.40625 L325,75.40625 L326,76.40625 L327,77.40625 L329,78.40625 L330,79.40625 L331,79.40625 L333,80.40625 L334,81.40625 L335,81.40625 L336,81.40625 L337,82.40625 L337,83.40625 L338,83.40625 L339,83.40625 L340,84.40625 L341,85.40625 L342,85.40625 L343,85.40625 L343,86.40625 L344,86.40625 L344,87.40625 L345,87.40625 L346,88.40625 L346,89.40625 L347,89.40625 L348,89.40625 L348,90.40625 L348,91.40625 L349,91.40625 L350,91.40625 L350,92.40625 L350,93.40625 L351,94.40625 L351,95.40625 L352,95.40625 L353,97.40625 L354,98.40625 L355,100.40625 L357,101.40625 L358,103.40625 L359,104.40625 L360,106.40625 L361,107.40625 L362,108.40625 L363,109.40625 L363,110.40625 L363,111.40625 L364,111.40625 L364,112.40625 L365,113.40625 L365,115.40625 L366,116.40625 L366,117.40625 L367,119.40625 L367,120.40625 L367,121.40625 L367,122.40625 L367,124.40625 L367,125.40625 L367,126.40625 L367,127.40625 L367,128.40625 L367,130.40625 L367,132.40625 L368,134.40625 L368,137.40625 L368,139.40625 L369,141.40625 L369,142.40625 L369,143.40625 L369,144.40625 L369,145.40625 L369,146.40625 L368,147.40625 L367,148.40625 L367,149.40625 L366,149.40625 L366,151.40625 L365,152.40625 L364,153.40625 L364,154.40625 L363,156.40625 L362,157.40625 L362,158.40625 L362,159.40625 L360,160.40625 L358,162.40625 L358,163.40625 L357,163.40625 L357,164.40625 L355,165.40625 L354,165.40625 L353,166.40625 L353,167.40625 L352,167.40625 L351,167.40625 L351,168.40625 L351,169.40625 L350,169.40625 L349,170.40625 L348,171.40625 L346,172.40625 L344,173.40625 L342,174.40625 L341,175.40625 L340,176.40625 L338,176.40625 L338,177.40625 L337,177.40625 L337,178.40625 L336,178.40625 L335,178.40625 L334,178.40625 L334,179.40625 L333,179.40625 L331,180.40625 L330,180.40625 L328,180.40625 L327,181.40625 L326,181.40625 L325,182.40625 L324,182.40625 L322,182.40625 L322,183.40625 L321,183.40625 L320,183.40625 L320,184.40625 L319,184.40625 L318,184.40625 L317,184.40625 L317,185.40625 L315,186.40625 L314,186.40625 L313,186.40625 L312,186.40625 L311,186.40625 L310,186.40625 L310,187.40625 L309,187.40625 L309,188.40625 L308,188.40625 L307,188.40625 L306,188.40625 L305,188.40625 L304,188.40625 L303,188.40625 L303,189.40625 L302,189.40625 L300,190.40625 L299,190.40625 L298,190.40625 L298,191.40625 L297,191.40625 L296,191.40625 L295,191.40625 L294,191.40625 L293,191.40625"/></svg>