<svg id="drawing-board" width="400" height="300" xmlns="http://www.w3.org/2000/svg">
        <!--<rect width="100%" height="100%" fill="white" />-->
    <path stroke="black" fill="none" d="M220.1999969482422,123.92499542236328 L220.1999969482422,124.92499542236328 L223.1999969482422,125.92499542236328 L225.1999969482422,125.92499542236328 L228.1999969482422,127.92499542236328 L232.1999969482422,128.9250030517578 L235.1999969482422,129.9250030517578 L239.1999969482422,129.9250030517578 L241.1999969482422,129.9250030517578 L245.1999969482422,129.9250030517578 L249.1999969482422,126.92499542236328 L253.1999969482422,125.92499542236328 L257.1999816894531,122.92499542236328 L261.1999816894531,121.92499542236328 L267.1999816894531,117.92499542236328 L272.1999816894531,114.92499542236328 L277.1999816894531,111.92499542236328 L284.1999816894531,109.92499542236328 L292.1999816894531,105.92499542236328 L299.1999816894531,101.92499542236328 L304.1999816894531,98.92499542236328 L308.1999816894531,94.92499542236328 L311.1999816894531,91.92499542236328 L312.1999816894531,87.92499542236328 L313.1999816894531,83.92499542236328 L313.1999816894531,81.92499542236328 L313.1999816894531,75.92499542236328 L313.1999816894531,73.92499542236328 L313.1999816894531,69.92499542236328 L312.1999816894531,65.92499542236328 L310.1999816894531,62.92499923706055 L308.1999816894531,61.92499923706055 L306.1999816894531,58.92499923706055 L304.1999816894531,57.92499923706055 L301.1999816894531,54.92499923706055 L297.1999816894531,53.92499923706055 L294.1999816894531,53.92499923706055 L290.1999816894531,53.92499923706055 L286.1999816894531,53.92499923706055 L281.1999816894531,53.92499923706055 L276.1999816894531,53.92499923706055 L271.1999816894531,53.92499923706055 L266.1999816894531,53.92499923706055 L261.1999816894531,53.92499923706055 L257.1999816894531,53.92499923706055 L252.1999969482422,53.92499923706055 L246.1999969482422,55.92499923706055 L242.1999969482422,57.92499923706055 L236.1999969482422,59.92499923706055 L231.1999969482422,61.92499923706055 L227.1999969482422,65.92499542236328 L223.1999969482422,68.92499542236328 L220.1999969482422,71.92499542236328 L218.1999969482422,73.92499542236328 L217.1999969482422,75.92499542236328 L216.1999969482422,77.92499542236328 L214.1999969482422,81.92499542236328 L214.1999969482422,84.92499542236328 L213.1999969482422,87.92499542236328 L213.1999969482422,89.92499542236328 L213.1999969482422,93.92499542236328 L213.1999969482422,97.92499542236328 L213.1999969482422,100.92499542236328 L215.1999969482422,103.92499542236328 L216.1999969482422,105.92499542236328 L216.1999969482422,108.92499542236328 L216.1999969482422,109.92499542236328 L217.1999969482422,112.92499542236328 L217.1999969482422,113.92499542236328 L219.1999969482422,115.92499542236328 L219.1999969482422,116.92499542236328 L220.1999969482422,117.92499542236328 L220.1999969482422,117.92499542236328 L220.1999969482422,119.92499542236328 L220.1999969482422,120.92499542236328 L221.1999969482422,121.92499542236328 L221.1999969482422,123.92499542236328 L223.1999969482422,124.92499542236328 L224.1999969482422,125.92499542236328 L224.1999969482422,125.92499542236328 L225.1999969482422,125.92499542236328 L227.1999969482422,127.92499542236328 L228.1999969482422,127.92499542236328"/><path stroke="black" fill="none" d="M256.1999816894531,122.92499542236328 L256.1999816894531,123.92499542236328 L256.1999816894531,125.92499542236328 L256.1999816894531,127.92499542236328 L256.1999816894531,128.9250030517578 L256.1999816894531,129.9250030517578 L256.1999816894531,131.9250030517578 L256.1999816894531,133.9250030517578 L256.1999816894531,135.9250030517578 L256.1999816894531,137.9250030517578 L255.1999969482422,137.9250030517578 L255.1999969482422,141.9250030517578 L255.1999969482422,143.9250030517578 L255.1999969482422,145.9250030517578 L255.1999969482422,149.9250030517578 L255.1999969482422,153.9250030517578 L255.1999969482422,157.9250030517578 L255.1999969482422,161.9250030517578 L255.1999969482422,165.9250030517578 L254.1999969482422,169.9250030517578 L254.1999969482422,173.9250030517578 L254.1999969482422,176.9250030517578 L254.1999969482422,181.9250030517578 L254.1999969482422,184.9250030517578 L254.1999969482422,187.9250030517578 L254.1999969482422,189.9250030517578 L254.1999969482422,193.9250030517578 L254.1999969482422,197.9250030517578 L254.1999969482422,200.9250030517578 L254.1999969482422,201.9250030517578 L254.1999969482422,205.92498779296875 L254.1999969482422,207.92498779296875 L254.1999969482422,209.92498779296875 L254.1999969482422,211.92498779296875 L254.1999969482422,213.92498779296875 L254.1999969482422,213.92498779296875 L254.1999969482422,215.92498779296875 L253.1999969482422,215.92498779296875"/><path stroke="black" fill="none" d="M249.1999969482422,163.9250030517578 L248.1999969482422,163.9250030517578 L247.1999969482422,163.9250030517578 L246.1999969482422,163.9250030517578 L245.1999969482422,162.9250030517578 L244.1999969482422,162.9250030517578 L242.1999969482422,161.9250030517578 L239.1999969482422,161.9250030517578 L236.1999969482422,159.9250030517578 L231.1999969482422,158.9250030517578 L225.1999969482422,157.9250030517578 L219.1999969482422,157.9250030517578 L211.1999969482422,157.9250030517578 L203.1999969482422,155.9250030517578 L196.1999969482422,155.9250030517578 L189.1999969482422,155.9250030517578 L184.1999969482422,155.9250030517578 L181.1999969482422,155.9250030517578 L179.1999969482422,155.9250030517578 L178.1999969482422,155.9250030517578"/><path stroke="black" fill="none" d="M255.1999969482422,172.9250030517578 L256.1999816894531,171.9250030517578 L257.1999816894531,170.9250030517578 L260.1999816894531,169.9250030517578 L263.1999816894531,166.9250030517578 L265.1999816894531,165.9250030517578 L269.1999816894531,161.9250030517578 L272.1999816894531,159.9250030517578 L276.1999816894531,157.9250030517578 L281.1999816894531,154.9250030517578 L287.1999816894531,153.9250030517578 L291.1999816894531,150.9250030517578 L296.1999816894531,149.9250030517578 L299.1999816894531,147.9250030517578 L301.1999816894531,146.9250030517578 L304.1999816894531,145.9250030517578 L308.1999816894531,145.9250030517578 L308.1999816894531,143.9250030517578 L311.1999816894531,142.9250030517578 L312.1999816894531,141.9250030517578"/><path stroke="black" fill="none" d="M253.1999969482422,215.92498779296875 L253.1999969482422,216.92498779296875 L253.1999969482422,217.92498779296875 L253.1999969482422,217.92498779296875 L253.1999969482422,220.92498779296875 L253.1999969482422,221.92498779296875 L253.1999969482422,225.92498779296875 L253.1999969482422,228.92498779296875 L253.1999969482422,231.92498779296875 L253.1999969482422,235.92498779296875 L253.1999969482422,239.92498779296875 L253.1999969482422,243.92498779296875 L253.1999969482422,245.92498779296875 L253.1999969482422,249.92498779296875 L253.1999969482422,253.92498779296875 L253.1999969482422,257.92498779296875 L255.1999969482422,261.92498779296875 L255.1999969482422,264.92498779296875 L256.1999816894531,267.92498779296875 L256.1999816894531,271.92498779296875 L256.1999816894531,272.92498779296875 L256.1999816894531,273.92498779296875 L256.1999816894531,273.92498779296875 L256.1999816894531,275.92498779296875"/><path stroke="black" fill="none" d="M256.1999816894531,270.92498779296875 L256.1999816894531,271.92498779296875 L254.1999969482422,271.92498779296875 L251.1999969482422,272.92498779296875 L247.1999969482422,273.92498779296875 L242.1999969482422,275.92498779296875 L210.1999969482422,283.92498779296875 L205.1999969482422,285.92498779296875 L201.1999969482422,285.92498779296875 L198.1999969482422,285.92498779296875 L196.1999969482422,285.92498779296875 L197.1999969482422,285.92498779296875"/><path stroke="black" fill="none" d="M259.1999816894531,277.92498779296875 L260.1999816894531,277.92498779296875 L261.1999816894531,277.92498779296875 L265.1999816894531,277.92498779296875 L271.1999816894531,277.92498779296875 L276.1999816894531,277.92498779296875 L284.1999816894531,279.92498779296875 L292.1999816894531,280.92498779296875 L300.1999816894531,280.92498779296875 L311.1999816894531,281.92498779296875 L320.1999816894531,283.92498779296875 L329.1999816894531,284.92498779296875 L337.1999816894531,285.92498779296875 L344.1999816894531,285.92498779296875 L349.1999816894531,287.92498779296875 L353.1999816894531,288.92498779296875 L357.1999816894531,288.92498779296875 L360.1999816894531,288.92498779296875"/></svg>