<svg id="drawing-board" width="400" height="300" xmlns="http://www.w3.org/2000/svg">
        <!--<rect width="100%" height="100%" fill="white" />-->
    <path stroke="black" fill="none" d="M162,108.40625 L162,108.40625 L163,108.40625 L163,107.40625 L164,107.40625 L164,106.40625 L165,104.40625 L167,101.40625 L168,99.40625 L169,97.40625 L171,95.40625 L172,93.40625 L173,91.40625 L174,89.40625 L175,87.40625 L176,86.40625 L177,84.40625 L178,83.40625 L179,81.40625 L180,80.40625 L181,78.40625 L183,76.40625 L184,75.40625 L185,73.40625 L186,72.40625 L186,71.40625 L187,69.40625 L188,68.40625 L189,66.40625 L189,65.40625 L189,64.40625 L190,63.40625 L190,63.40625 L190,62.40625 L191,62.40625 L191,61.40625 L191,60.40625 L192,60.40625 L193,60.40625 L194,61.40625 L195,62.40625 L196,64.40625 L197,65.40625 L197,67.40625 L198,68.40625 L198,70.40625 L199,72.40625 L200,74.40625 L201,76.40625 L202,79.40625 L204,81.40625 L205,83.40625 L206,86.40625 L207,88.40625 L208,90.40625 L208,92.40625 L209,94.40625 L210,97.40625 L211,98.40625 L211,100.40625 L212,101.40625 L212,102.40625 L212,104.40625 L213,104.40625 L213,105.40625 L213,106.40625 L213,107.40625 L214,108.40625 L214,109.40625"/><path stroke="black" fill="none" d="M163,108.40625 L162,108.40625 L161,108.40625 L160,108.40625 L159,108.40625 L158,108.40625 L157,108.40625 L155,108.40625 L154,108.40625 L153,108.40625 L151,108.40625 L150,108.40625 L148,108.40625 L147,108.40625 L145,108.40625 L143,108.40625 L140,108.40625 L136,108.40625 L133,108.40625 L130,109.40625 L126,109.40625 L123,109.40625 L120,109.40625 L118,109.40625 L116,109.40625 L114,109.40625 L114,110.40625 L113,110.40625 L113,111.40625 L114,111.40625 L115,113.40625 L116,114.40625 L117,115.40625 L119,116.40625 L121,118.40625 L122,119.40625 L123,120.40625 L125,121.40625 L126,122.40625 L127,123.40625 L128,124.40625 L129,124.40625 L130,125.40625 L131,126.40625 L132,126.40625 L133,127.40625 L134,128.40625 L136,129.40625 L137,130.40625 L139,131.40625 L140,132.40625 L143,134.40625 L144,135.40625 L146,137.40625 L148,138.40625 L149,139.40625 L150,140.40625 L151,141.40625 L153,142.40625 L154,142.40625 L155,143.40625 L156,143.40625 L156,144.40625 L157,144.40625"/><path stroke="black" fill="none" d="M216,109.40625 L217,109.40625 L218,109.40625 L219,109.40625 L219,108.40625 L220,108.40625 L222,108.40625 L223,108.40625 L224,108.40625 L226,107.40625 L228,107.40625 L229,107.40625 L231,107.40625 L235,107.40625 L239,107.40625 L243,107.40625 L248,107.40625 L253,106.40625 L258,106.40625 L263,106.40625 L269,106.40625 L273,106.40625 L277,106.40625 L280,106.40625 L282,106.40625 L284,106.40625 L285,106.40625 L284,106.40625 L283,107.40625 L282,107.40625 L280,108.40625 L278,109.40625 L276,110.40625 L274,111.40625 L272,112.40625 L270,113.40625 L268,114.40625 L266,115.40625 L264,116.40625 L262,118.40625 L261,119.40625 L259,120.40625 L257,121.40625 L256,122.40625 L255,122.40625 L253,123.40625 L252,124.40625 L250,125.40625 L248,126.40625 L247,127.40625 L245,128.40625 L243,129.40625 L241,131.40625 L240,132.40625 L238,133.40625 L237,134.40625 L236,135.40625 L234,136.40625 L233,136.40625 L233,137.40625 L232,137.40625 L232,138.40625 L231,138.40625 L230,138.40625 L230,139.40625 L229,139.40625"/><path stroke="black" fill="none" d="M156,147.40625 L156,148.40625 L156,149.40625 L156,150.40625 L156,151.40625 L156,152.40625 L156,153.40625 L156,154.40625 L155,154.40625 L155,155.40625 L155,157.40625 L155,158.40625 L154,159.40625 L154,160.40625 L154,162.40625 L153,164.40625 L152,166.40625 L151,168.40625 L151,169.40625 L150,171.40625 L149,173.40625 L149,175.40625 L148,176.40625 L148,178.40625 L148,179.40625 L147,181.40625 L147,182.40625 L146,183.40625 L146,184.40625 L146,185.40625 L145,186.40625 L145,187.40625 L145,188.40625 L145,189.40625 L146,189.40625 L147,189.40625 L147,188.40625 L148,188.40625 L149,188.40625 L151,187.40625 L153,186.40625 L155,184.40625 L157,183.40625 L159,181.40625 L161,180.40625 L163,179.40625 L165,177.40625 L167,176.40625 L168,174.40625 L170,172.40625 L171,171.40625 L173,169.40625 L175,168.40625 L176,166.40625 L177,165.40625 L179,163.40625 L180,162.40625 L182,161.40625 L183,159.40625 L184,158.40625 L185,157.40625 L186,156.40625 L187,155.40625 L188,154.40625 L189,153.40625 L190,152.40625"/><path stroke="black" fill="none" d="M193,155.40625 L193,156.40625 L193,157.40625 L193,158.40625 L193,159.40625 L194,159.40625 L194,160.40625 L195,161.40625 L195,162.40625 L196,163.40625 L197,164.40625 L198,165.40625 L199,166.40625 L200,167.40625 L202,169.40625 L203,170.40625 L205,171.40625 L206,173.40625 L207,174.40625 L209,175.40625 L211,177.40625 L213,178.40625 L214,180.40625 L216,181.40625 L218,183.40625 L219,183.40625 L220,184.40625 L221,185.40625 L222,185.40625 L222,186.40625 L223,187.40625 L224,187.40625 L225,188.40625 L226,188.40625 L227,188.40625 L227,189.40625 L229,189.40625 L230,190.40625 L231,190.40625 L232,190.40625 L232,189.40625 L232,188.40625 L232,187.40625 L232,186.40625 L232,185.40625 L232,183.40625 L232,181.40625 L232,180.40625 L232,178.40625 L232,176.40625 L232,175.40625 L232,173.40625 L232,171.40625 L232,170.40625 L232,169.40625 L232,167.40625 L232,166.40625 L232,165.40625 L231,164.40625 L231,162.40625 L231,161.40625 L231,159.40625 L230,158.40625 L230,157.40625 L230,156.40625 L230,154.40625 L230,153.40625 L230,152.40625 L230,151.40625 L230,150.40625 L229,150.40625 L229,149.40625 L229,148.40625 L229,147.40625 L229,146.40625 L229,145.40625 L229,144.40625 L229,143.40625 L229,142.40625 L229,141.40625 L229,140.40625 L228,139.40625"/></svg>