<svg id="svgElement" style="background-color: transparent;" xmlns="http://www.w3.org/2000/svg" xmlns:xlink="http://www.w3.org/1999/xlink" version="1.1" width="600" height="400"><path fill="none" stroke="#000" stroke-width="2" stroke-linecap="round" d="M263 39 L262 39 L260.8 39 L259.42 39 L258.62 39 L257.12 39 L255.5 39 L253.75 39.12 L251.87 39.25 L249.87 39.5 L247.87 39.75 L245.62 40.25 L243.37 40.87 L241.12 41.62 L238.62 42.62 L236.12 43.62 L233.5 44.87 L230.87 46.25 L228 47.87 L225.25 49.37 L222.37 51 L219.37 52.87 L216.5 54.75 L213.62 56.75 L210.75 58.87 L208 61.12 L205.37 63.5 L202.87 66 L200.5 68.75 L198.37 71.5 L196.37 74.37 L194.5 77.37 L192.87 80.25 L191.5 83 L190.37 85.75 L189.37 88.5 L188.62 91.12 L188 93.62 L187.62 96 L187.5 98.25 L187.62 100.62 L187.87 103 L188.25 105.25 L189 107.5 L190 109.75 L191.25 112 L192.75 114.25 L194.37 116.37 L196.12 118.37 L198 120.25 L200.12 122.12 L202.25 123.87 L204.37 125.5 L206.5 127 L208.62 128.5 L210.87 130 L213.12 131.5 L215.5 133 L217.75 134.37 L220.12 135.75 L222.75 137 L225.5 138.25 L228.25 139.37 L231.12 140.37 L234 141.25 L236.87 142 L240 142.62 L243.12 143.12 L246.25 143.5 L249.5 143.75 L252.87 143.87 L256.25 144 L259.87 144 L263.62 143.87 L267.37 143.62 L271.25 143.25 L275.12 142.75 L279 142.12 L282.87 141.25 L286.62 140.25 L290.12 139.12 L293.37 137.87 L296.37 136.5 L299.12 135 L301.62 133.37 L303.75 131.62 L305.75 129.75 L307.5 127.75 L309.12 125.5 L310.62 123 L312 120.37 L313.12 117.62 L314.12 114.75 L315 111.75 L315.75 108.87 L316.37 105.87 L316.87 103 L317.25 100.37 L317.5 97.87 L317.75 95.5 L317.87 93.25 L318 91.12 L318 89.12 L317.87 87.25 L317.75 85.37 L317.5 83.5 L317 81.62 L316.37 79.75 L315.62 77.87 L314.75 76.12 L313.75 74.25 L312.62 72.37 L311.37 70.5 L310.12 68.62 L309 66.75 L307.75 64.75 L306.5 62.87 L305.25 60.87 L304 58.87 L302.87 57 L301.75 55.25 L300.62 53.62 L299.62 52.12 L298.75 50.87 L297.87 49.62 L297 48.62 L296.12 47.75 L295.25 46.87 L294.37 46.12 L293.5 45.37 L292.62 44.62 L291.75 44 L290.87 43.5 L290 42.87 L289.12 42.37 L288.25 42 L287.37 41.5 L286.5 41.12 L285.5 40.87 L284.62 40.5 L283.75 40.12 L282.87 39.87 L281.87 39.62 L280.87 39.25 L279.62 39 L278.37 38.75 L276.87 38.5 L275.12 38.25 L273.37 37.87 L271.62 37.5 L270 37.12 L268.37 36.87 L267 36.62 L265.62 36.25 L264.5 35.87 L263.5 35.62 L262.5 35.5 L261.5 35.37 L260.62 35.37 L259.87 35.5 L259.12 35.62 L258.33 35.83 L257.75 36.25 L257.5 37"></path><path fill="none" stroke="#000" stroke-width="2" stroke-linecap="round" d="M248 145 L247.33 145.33 L247 146.4 L246.71 148 L246.5 148.87 L246.12 150.37 L245.75 152.25 L245.25 154.25 L244.75 156.37 L244.25 158.62 L243.62 161 L243 163.37 L242.37 166 L241.62 168.75 L241 171.5 L240.37 174.37 L239.75 177.5 L239.12 180.62 L238.62 183.75 L238.12 187 L237.62 190.12 L237.25 193.12 L236.87 196.12 L236.62 199.12 L236.37 201.87 L236.25 204.62 L236.12 207.37 L236 210.12 L236 212.75 L236 215.5 L236.12 218.12 L236.25 220.62 L236.37 223.12 L236.5 225.37 L236.62 227.37 L236.75 229.12 L236.87 230.75 L237 232.12 L236.87 233.37 L236.75 234.5 L236.62 235.5 L236.5 236.62 L236.25 237.75 L236 239 L235.75 240.37 L235.5 242 L235.37 243.75 L235.25 245.62 L235.12 247.62 L235 249.62 L235 251.62 L235 253.62 L235 255.5 L235 257.12 L234.87 258.5 L234.75 259.75 L234.62 260.87 L234.5 261.87 L234.37 262.87 L234.25 263.75 L234.12 264.37 L234 264.75 L234.12 265 L234.25 265 L234.37 264.75 L234.5 264.5 L234.75 263.5 L235 262.5"></path><path fill="none" stroke="#000" stroke-width="2" stroke-linecap="round" d="M236 201 L235.33 201.33 L234.8 201.8 L234.14 202.28 L233.87 202.62 L233.25 203.25 L232.62 204 L231.87 204.75 L231.12 205.62 L230.25 206.5 L229.37 207.5 L228.62 208.5 L227.75 209.62 L226.87 210.75 L226 211.87 L225.12 213 L224.25 214.12 L223.37 215.25 L222.5 216.25 L221.62 217.25 L220.75 218.12 L219.87 218.87 L219.12 219.62 L218.37 220.25 L217.75 220.87 L217.12 221.37 L216.62 222 L216 222.5 L215.37 223 L214.75 223.5 L214.12 224 L213.5 224.5 L212.75 225 L212 225.5 L211.12 226 L210.25 226.5 L209.5 227 L208.75 227.5 L207.87 227.87 L207.12 228.37 L206.37 228.75 L205.62 229.12 L204.87 229.37 L204.25 229.75 L203.5 230 L202.75 230.25 L202 230.5 L201.12 230.62 L200.25 230.75 L199.5 231 L198.75 231.25 L197.87 231.37 L197 231.5 L196.12 231.62 L195.25 231.75 L194.37 231.87 L193.5 232 L192.5 232 L191.5 232 L190.62 231.87 L189.75 231.75 L188.87 231.62 L188 231.37 L187.12 231.12 L186.37 230.75 L185.62 230.37 L184.87 230 L184.12 229.62 L183.37 229.25 L182.62 228.75 L181.87 228.25 L181.25 227.62 L180.5 227 L179.75 226.25 L179.12 225.37 L178.37 224.5 L177.62 223.5 L177 222.5 L176.5 221.5 L175.87 220.62 L175.37 219.75 L174.87 218.87 L174.37 218 L174 217.12 L173.62 216.37 L173.25 215.5 L172.87 214.62 L172.62 213.5 L172.37 212.37 L172.25 211.12 L172.12 209.87 L172 208.5 L172 207 L172 205.62 L172 204.12 L172 202.75 L172 201.37 L172 200 L172.12 198.62 L172.25 197.37 L172.5 196 L172.75 194.62 L173.12 193.37 L173.5 192.12 L173.87 190.87 L174.37 189.87 L174.83 188.66 L175.25 187.75 L175.5 187"></path><path fill="none" stroke="#000" stroke-width="2" stroke-linecap="round" d="M237 200 L238 200 L239.8 200 L242.42 199.85 L243.87 199.75 L246.37 199.62 L249.25 199.5 L252.5 199.25 L256.12 199 L259.87 198.75 L264 198.5 L268.25 198.5 L272.75 198.62 L277.5 198.75 L282.25 199 L287 199.62 L291.62 200.37 L296.12 201.25 L300.37 202.37 L304.5 203.62 L308.37 205 L312 206.62 L315.5 208.37 L318.75 210.12 L321.62 211.87 L324.25 213.62 L326.37 215.25 L328.12 216.87 L329.5 218.37 L330.5 219.75 L331.12 221 L331.5 222.12 L331.87 223.25 L332.12 224.37 L332.37 225.5 L332.5 226.5 L332.62 227.5 L332.75 228.5 L332.87 229.5 L333 230.62 L333 231.87 L333 233.25 L333 234.75 L333 236.37 L333 238 L333 239.62 L333 241.25 L333 242.75 L333 244.12 L333 245.37 L333 246.5 L333 247.5 L333 248.5 L333 249.5"></path><path fill="none" stroke="#000" stroke-width="2" stroke-linecap="round" d="M232 260 L232 261 L232 262 L232 263 L232 263.5 L232 264.5 L232 265.5 L232 266.5 L232 267.5 L232 268.62 L231.87 269.87 L231.62 271.25 L231.37 272.75 L231 274.5 L230.5 276.37 L229.75 278.37 L228.87 280.5 L227.75 282.75 L226.5 285 L225.12 287.25 L223.5 289.62 L221.62 291.87 L219.5 294.25 L217.37 296.5 L215.12 298.75 L212.87 300.87 L210.75 302.87 L208.62 304.87 L206.5 306.62 L204.37 308.37 L202.37 309.87 L200.25 311.5 L198 313 L195.87 314.37 L193.5 315.75 L191.12 317 L188.75 318.25 L186.5 319.25 L184.37 320.12 L182.5 320.75 L180.87 321.25 L179.25 321.62 L178 322 L176.87 322.25 L175.87 322.37 L175 322.5 L174.12 322.62 L173.25 322.75 L172.5 322.75 L171.75 322.75 L171 322.5 L170.12 322.12 L169.25 321.62 L168.37 321 L167.5 320.25 L166.62 319.37 L165.62 318.5 L164.62 317.5 L163.5 316.5 L162.5 315.5 L161.37 314.5 L160.25 313.5 L159 312.5 L157.75 311.5 L156.5 310.5 L155.25 309.5 L154 308.5 L152.62 307.5 L151.37 306.62 L150.12 305.75 L149 304.87 L147.87 304.12 L146.87 303.37 L146 302.62 L145.25 301.87 L144.87 301.25 L144.62 300.5 L144.75 299.62 L144.83 298.83 L145.25 298 L146 297"></path><path fill="none" stroke="#000" stroke-width="2" stroke-linecap="round" d="M231 262 L231 263 L231.4 263.6 L231.71 264.42 L231.87 265 L232.25 266 L232.75 267 L233.25 268.12 L233.62 269.62 L234.12 271.37 L234.75 273.37 L235.37 275.5 L236 277.62 L236.62 280 L237.25 282.5 L238 285.12 L238.87 287.75 L239.75 290.25 L240.62 292.5 L241.5 294.75 L242.5 296.87 L243.5 298.87 L244.62 300.75 L246 302.5 L247.5 304 L249.37 305.37 L251.5 306.87 L254 308.25 L256.87 309.62 L260.12 311 L263.75 312.37 L267.75 313.62 L272.25 314.87 L276.75 316 L281.62 317 L286.75 317.87 L292.12 318.75 L297.75 319.37 L303.37 319.87 L308.75 320.25 L314 320.5 L319.12 320.75 L323.87 320.87 L328.12 321 L331.87 320.87 L335 320.75 L338.33 320.66 L340.75 320.5 L342.5 320"></path></svg>